<?xml version="1.0" encoding="UTF-8"?><svg id="Ebene_3" xmlns="http://www.w3.org/2000/svg" xmlns:xlink="http://www.w3.org/1999/xlink" viewBox="0 0 160 187.74"><defs><style>.cls-1{fill:url(#Unbenannter_Verlauf_122);}.cls-2{fill:#f3e600;}.cls-3{fill:url(#Unbenannter_Verlauf_113);}.cls-4{fill:url(#gradient-6);}.cls-5{fill:url(#Unbenannter_Verlauf_110);}.cls-6{fill:url(#Unbenannter_Verlauf_101);}.cls-7{fill:#9c3;}.cls-8{fill:#ffe113;}.cls-9{fill:url(#gradient-5);}</style><linearGradient id="Unbenannter_Verlauf_113" x1="89.64" y1="184.81" x2="90.48" y2="21.85" gradientTransform="matrix(1, 0, 0, 1, 0, 0)" gradientUnits="userSpaceOnUse"><stop offset="0" stop-color="#62d399"/><stop offset=".51" stop-color="#acd842"/><stop offset=".9" stop-color="#d7db0a"/></linearGradient><linearGradient id="Unbenannter_Verlauf_110" x1="69.68" y1="178.9" x2="68.08" y2="16.77" gradientTransform="matrix(1, 0, 0, 1, 0, 0)" gradientUnits="userSpaceOnUse"><stop offset="0" stop-color="#0ba398"/><stop offset=".5" stop-color="#4ca352"/><stop offset="1" stop-color="#76a30a"/></linearGradient><linearGradient id="Unbenannter_Verlauf_101" x1="36.6" y1="152.17" x2="34.7" y2="84.19" gradientTransform="matrix(1, 0, 0, 1, 0, 0)" gradientUnits="userSpaceOnUse"><stop offset=".19" stop-color="#36a382"/><stop offset=".54" stop-color="#49a459"/><stop offset="1" stop-color="#76a30b"/></linearGradient><linearGradient id="Unbenannter_Verlauf_122" x1="15.82" y1="153.24" x2="18" y2="90.86" gradientTransform="matrix(1, 0, 0, 1, 0, 0)" gradientUnits="userSpaceOnUse"><stop offset="0" stop-color="#267880"/><stop offset=".51" stop-color="#457a5c"/><stop offset="1" stop-color="#717516"/></linearGradient><linearGradient id="gradient-6" x1="135.08" y1="135.43" x2="148.93" y2="63.47" gradientTransform="matrix(1, 0, 0, 1, 0, 0)" gradientUnits="userSpaceOnUse"><stop offset="0" stop-color="#b0d939"/><stop offset="1" stop-color="#eadb04"/></linearGradient><linearGradient id="gradient-5" x1="-4163.25" y1="2285.12" x2="-4160.81" y2="2215.34" gradientTransform="translate(4801.15 -595.25) rotate(20)" gradientUnits="userSpaceOnUse"><stop offset=".17" stop-color="#74af52"/><stop offset=".48" stop-color="#99be32"/><stop offset="1" stop-color="#c0c40a"/></linearGradient><symbol id="needle-icon" viewBox="0 0 160 187.74"><g><polygon class="cls-3" points="79.32 36.98 79.32 187.74 95 174.54 101.59 18.23 79.32 36.98"/><polygon class="cls-5" points="79.32 36.98 57.05 18.23 63.64 174.54 79.32 187.74 79.32 36.98"/><polygon class="cls-6" points="25.19 104.83 33.82 153.87 46.32 138.92 43.86 82.5 25.19 104.83"/><polygon class="cls-1" points="25.19 104.83 0 90.24 16.97 144.1 33.82 153.87 25.19 104.83"/><polygon class="cls-7" points="43.86 82.5 18.69 67.98 0 90.24 25.18 104.83 43.86 82.5"/><polygon class="cls-4" points="134.82 78.69 124.85 135.19 140.43 126.15 160 64.1 134.82 78.69"/><polygon class="cls-9" points="134.82 78.69 116.14 56.36 113.28 121.36 124.85 135.19 134.82 78.69"/><polygon class="cls-8" points="160 64.1 141.31 41.84 116.14 56.36 134.81 78.69 160 64.1"/><polygon class="cls-2" points="101.59 18.23 79.32 0 57.05 18.23 79.32 36.98 101.59 18.23"/></g></symbol></defs><use width="160" height="187.74" xlink:href="#needle-icon"/></svg>